<mxfile host="app.diagrams.net" modified="2024-05-31T17:05:16.494Z" agent="Mozilla/5.0 (Macintosh; Intel Mac OS X 10_15_7) AppleWebKit/605.1.15 (KHTML, like Gecko) Version/17.2.1 Safari/605.1.15" version="24.4.13" etag="9Rj6FCq-84R11DDh-OvS" type="github">
  <diagram name="第 1 页" id="NPgBcdt4-zhkseoK6-Oz">
    <mxGraphModel>
      <root>
        <mxCell id="0" />
        <mxCell id="1" parent="0" />
      </root>
    </mxGraphModel>
  </diagram>
</mxfile>
